<?xml version="1.0" encoding="UTF-8"?>
<svg xmlns="http://www.w3.org/2000/svg" width="0" height="0">
  <defs>
    <symbol id="unlock" viewBox="0 0 24 24">
      <path d="M12 17a2 2 0 100-4 2 2 0 000 4zm6-9a2 2 0 012 2v10a2 2 0 01-2 2H6a2 2 0 01-2-2V10a2 2 0 012-2h1V6a5 5 0 0110 0v2h1zm-6-5a3 3 0 00-3 3v2h6V6a3 3 0 00-3-3z"/>
    </symbol>
    <symbol id="phone" viewBox="0 0 24 24">
      <path d="M17 2H7c-1.1 0-2 .9-2 2v16c0 1.1.9 2 2 2h10c1.1 0 2-.9 2-2V4c0-1.1-.9-2-2-2zm0 18H7V4h10v16z"/>
    </symbol>
    <symbol id="peace" viewBox="0 0 24 24">
      <path d="M12 2C6.48 2 2 6.48 2 12s4.48 10 10 10 10-4.48 10-10S17.52 2 12 2zm0 18c-4.41 0-8-3.59-8-8s3.59-8 8-8 8 3.59 8 8-3.59 8-8 8zm-5-9h10v2H7z"/>
    </symbol>
  </defs>
</svg>